# Blender 4.3.2
# www.blender.org
mtllib teapot.mtl
o Teapot
v 0.138149 0.379684 0.465547
v -0.014934 0.412609 0.456192
v 0.212717 0.411724 0.400244
v 0.129751 0.377787 0.430716
v -0.089842 0.377793 0.453446
v 0.308097 0.376585 0.323031
v 0.427681 0.379613 0.224254
v 0.390824 0.410038 0.209858
v 0.438512 0.377793 0.074908
v 0.440852 0.410893 -0.050634
v -0.475012 0.411996 0.100951
v -0.415178 0.411724 0.227651
v -0.445650 0.377787 0.144685
v -0.468380 0.377793 -0.074908
v -0.337965 0.376585 0.323031
v -0.239188 0.379613 0.442614
v -0.224791 0.410038 0.405758
v -0.168017 0.379684 -0.465547
v -0.065568 0.410893 -0.455786
v -0.159619 0.377787 -0.430716
v 0.059974 0.377793 -0.453446
v -0.285710 0.412956 -0.368968
v -0.337965 0.376585 -0.323031
v -0.455448 0.383246 -0.224511
v -0.422117 0.409410 -0.205580
v 0.450613 0.379684 -0.153083
v 0.415782 0.377787 -0.144685
v 0.355934 0.412823 -0.267160
v 0.308097 0.376585 -0.323031
v 0.209577 0.383246 -0.440514
v 0.190646 0.409410 -0.407183
v 0.187659 0.015092 0.601197
v -0.014934 0.081441 0.617679
v -0.014934 -0.153480 0.645929
v 0.357307 0.064734 0.503458
v 0.511846 -0.106142 0.399962
v 0.607444 -0.106159 0.220283
v 0.630995 -0.153480 -0.000000
v 0.602745 0.081441 -0.000000
v -0.616130 0.015092 0.202593
v -0.632613 0.081441 -0.000000
v -0.662791 -0.108106 -0.000000
v -0.518162 0.070054 0.369043
v -0.414896 -0.106142 0.526780
v -0.217527 0.015093 0.601197
v -0.235217 -0.106159 -0.622378
v -0.014934 0.081441 -0.617679
v -0.014934 -0.153480 -0.645929
v -0.385833 0.061174 -0.505391
v -0.541713 -0.106142 -0.399962
v -0.637312 -0.106159 -0.220283
v 0.607444 -0.106159 -0.220283
v 0.488294 0.070054 -0.369043
v 0.385028 -0.106142 -0.526780
v 0.187659 0.015093 -0.601197
v -0.014934 -0.354609 0.486703
v 0.198639 -0.198589 0.601465
v 0.205954 -0.368615 0.426406
v 0.361767 -0.200265 0.513302
v 0.413025 -0.364976 0.223958
v 0.505134 -0.268129 0.265560
v 0.455906 -0.372826 0.011365
v 0.549890 -0.278420 -0.093139
v -0.616399 -0.198589 0.213573
v -0.625746 -0.231220 0.000000
v -0.355187 -0.367900 0.340254
v -0.483593 -0.208499 0.435806
v -0.167086 -0.384085 0.435026
v -0.228507 -0.198589 0.601465
v -0.084135 -0.373222 -0.471080
v -0.108072 -0.278420 -0.564824
v -0.358151 -0.364868 -0.340460
v -0.394156 -0.202877 -0.510582
v -0.539280 -0.264329 -0.263489
v 0.412103 -0.367923 -0.220849
v 0.453725 -0.208499 -0.435806
v 0.208800 -0.366291 -0.426963
v 0.198639 -0.198589 -0.601465
v -0.962441 0.224368 0.066670
v -0.955095 0.272925 -0.031508
v -0.837084 0.311721 0.060159
v -0.505229 0.319914 0.052208
v -0.501530 0.326979 -0.036545
v -0.909647 0.230167 0.070518
v -0.804216 0.265545 0.064044
v -0.532268 0.258261 0.039898
v -0.886432 0.206681 -0.030212
v -0.803914 0.255253 -0.053704
v -0.528150 0.266782 -0.055693
v -0.949386 0.207341 -0.071635
v -0.819081 0.301698 -0.067752
v -0.634229 -0.194609 0.048520
v -0.819590 -0.099476 0.031572
v -0.630398 -0.205284 -0.000000
v -0.957026 0.053784 0.030178
v -0.830401 -0.029138 0.075809
v -0.658628 -0.119225 0.049817
v -0.893396 0.095452 0.064352
v -0.780545 -0.042290 -0.056745
v -0.873437 0.100304 -0.030318
v -0.658628 -0.119225 -0.049817
v -0.634229 -0.194609 -0.048520
v -0.842699 -0.058127 -0.067621
v -0.983926 0.128899 -0.042163
v 0.907921 0.287393 0.061135
v 0.925198 0.271784 -0.029097
v 0.779326 -0.061883 0.100876
v 0.830422 0.003297 -0.053906
v 0.730323 -0.130269 -0.061444
v 0.535745 -0.177491 0.102621
v 0.535745 -0.205284 -0.000000
v 0.753916 0.016821 0.142347
v 0.536722 -0.086450 0.171519
v 0.901277 0.386937 0.050088
v 0.822010 0.345433 0.000000
v 0.726485 0.089206 0.089734
v 0.536069 0.059462 0.054410
v 0.721616 0.115328 -0.000000
v 0.726485 0.089206 -0.089734
v 0.535745 0.034164 -0.102621
v 0.901646 0.365517 -0.061239
v 0.753916 0.016821 -0.142347
v 0.536722 -0.086450 -0.171519
v 0.535745 -0.177491 -0.102621
v 1.017013 0.385373 0.006369
v 1.083610 0.402417 0.032951
v 0.907727 0.379656 0.028832
v 0.891705 0.378708 -0.000000
v 0.906815 0.378974 -0.027742
v 0.899984 0.397699 -0.025846
v 1.007674 0.379387 -0.022188
v 1.059454 0.401886 -0.042250
v 0.049575 0.466597 0.039861
v -0.014323 0.509590 0.062948
v 0.061215 0.583549 0.100705
v 0.051254 0.619488 0.066187
v 0.048015 0.509590 -0.000611
v 0.102349 0.594391 -0.020728
v -0.056968 0.465007 0.063364
v -0.077882 0.509590 0.000611
v -0.132217 0.594391 0.020728
v -0.074683 0.595445 0.109204
v -0.079442 0.466597 -0.039861
v -0.015544 0.509590 -0.062948
v -0.059202 0.596678 -0.112237
v -0.111511 0.582394 -0.070647
v 0.027100 0.465007 -0.063364
v 0.057058 0.591008 -0.098426
v 0.122599 0.390478 0.409142
v -0.014934 0.377787 0.421107
v 0.235170 0.377787 0.340794
v 0.325860 0.377787 0.250104
v 0.396948 0.394152 0.138857
v 0.416047 0.390738 -0.001177
v -0.414885 0.377787 0.134350
v -0.445915 0.390738 0.001177
v -0.355727 0.377787 0.250104
v -0.269764 0.394560 0.353200
v -0.149284 0.377788 0.399951
v -0.152467 0.390478 -0.409142
v -0.014934 0.377787 -0.421107
v -0.265038 0.377787 -0.340794
v -0.355727 0.377787 -0.250104
v -0.426815 0.394152 -0.138857
v 0.385017 0.377787 -0.134350
v 0.325860 0.377787 -0.250104
v 0.239163 0.394136 -0.353258
v 0.119416 0.377788 -0.399951
v 0.235185 -0.394713 -0.259547
v -0.487370 -0.369381 -0.077939
v -0.293380 -0.391163 -0.294574
v -0.450359 -0.380723 0.162258
v 0.214655 -0.397178 0.217379
vn 0.1411 0.8155 0.5613
vn 0.4682 0.7712 0.4312
vn -0.6572 -0.4415 -0.6109
vn 0.6042 0.7880 0.1186
vn -0.8216 -0.5472 -0.1596
vn -0.4312 0.7712 0.4682
vn 0.6109 -0.4415 -0.6572
vn -0.1522 0.7906 0.5932
vn 0.2188 -0.4005 -0.8898
vn 0.7377 -0.2900 0.6096
vn -0.5759 0.8106 -0.1062
vn 0.8014 -0.5808 0.1432
vn -0.6093 -0.3165 0.7270
vn 0.1134 0.8118 -0.5728
vn -0.1592 -0.5457 0.8227
vn 0.1937 0.3651 0.9106
vn 0.4840 0.4286 0.7629
vn 0.5861 0.0399 0.8092
vn 0.8401 0.3072 0.4470
vn 0.9052 0.3328 0.2641
vn -0.9071 0.3727 0.1958
vn -0.8244 0.4100 0.3902
vn -0.5001 0.3203 0.8046
vn -0.1983 0.3811 0.9030
vn -0.2609 0.3290 -0.9076
vn -0.5889 0.0344 -0.8075
vn -0.4955 0.4330 -0.7530
vn -0.5850 0.0344 -0.8103
vn -0.6276 0.4303 -0.6489
vn -0.8399 0.3082 -0.4468
vn -0.9046 0.3339 -0.2650
vn 0.9076 0.3290 -0.2609
vn 0.8038 0.0425 -0.5934
vn 0.7504 0.4371 -0.4958
vn 0.5004 0.3211 -0.8040
vn 0.1986 0.3821 -0.9025
vn 0.0321 -0.6204 0.7836
vn 0.7004 -0.4727 0.5348
vn -0.9541 -0.2871 0.0856
vn -0.0321 -0.6204 0.7836
vn -0.2850 -0.4863 -0.8260
vn -0.7056 -0.4690 -0.5311
vn -0.5552 -0.7807 -0.2867
vn -0.9515 -0.2863 -0.1126
vn 0.6242 -0.7697 -0.1340
vn 0.7969 -0.5078 -0.3273
vn 0.4670 -0.7511 -0.4666
vn 0.0504 -0.5699 -0.8201
vn -0.9806 0.1946 0.0229
vn -0.0937 0.2071 0.9738
vn -0.0190 -0.9960 0.0870
vn -0.8630 0.2069 -0.4609
vn -0.0705 0.9936 -0.0878
vn -0.4623 -0.8730 0.1556
vn -0.5642 -0.5000 0.6571
vn 0.1688 0.0377 0.9849
vn 0.8588 0.4557 0.2340
vn 0.5340 0.8335 -0.1414
vn 0.0832 0.1154 0.9898
vn -0.6336 0.4553 0.6255
vn -0.5225 0.8429 0.1284
vn -0.1992 0.9380 0.2838
vn -0.6121 0.4548 -0.6469
vn 0.6697 -0.7123 -0.2101
vn 0.2140 -0.1958 0.9570
vn 0.4835 -0.7358 0.4742
vn 0.8420 -0.4820 0.2422
vn -0.9650 -0.1604 0.2076
vn -0.1569 0.9835 0.0903
vn -0.5265 -0.6593 0.5368
vn 0.0145 -0.4663 0.8845
vn -0.2140 -0.1958 -0.9570
vn -0.5010 -0.7124 -0.4914
vn -0.1231 0.9911 -0.0505
vn -0.8486 -0.5141 -0.1248
vn 0.9650 -0.1604 -0.2076
vn 0.2024 0.9662 -0.1600
vn 0.5113 -0.6832 -0.5214
vn 0.0827 -0.4591 -0.8845
vn 0.0679 0.9835 -0.1678
vn 0.1545 0.9732 0.1701
vn -0.1545 0.9732 -0.1701
vn 0.0496 -0.9834 -0.1748
vn 0.1881 -0.9630 -0.1931
vn 0.1604 -0.9857 -0.0511
vn -0.2770 -0.9487 -0.1527
vn -0.1705 -0.9393 -0.2976
vn -0.0064 -1.0000 -0.0054
vn -0.1631 -0.9740 0.1574
vn -0.0262 -0.9996 0.0142
vn 0.1577 -0.9851 0.0682
vn 0.1541 -0.9781 0.1401
vn 0.0442 -0.9896 0.1371
vn 0.8563 0.4745 -0.2038
vn -0.4624 0.4384 -0.7707
vn -0.7513 0.5307 -0.3923
vn 0.4386 -0.0052 0.8987
vn 0.7707 0.4384 -0.4624
vn 0.3923 0.5307 -0.7513
vn 0.0935 0.4185 0.9034
vn -0.2008 0.8246 -0.5288
vn -0.8988 -0.0028 0.4384
vn -0.4450 0.8228 -0.3536
vn 0.7547 0.5246 0.3941
vn -0.9034 0.4185 0.0935
vn 0.5300 0.8240 -0.2005
vn 0.1620 0.0666 0.9845
vn 0.3578 0.8224 -0.4424
vn -0.3941 0.5246 0.7547
vn 0.4837 0.0341 0.8746
vn 0.0393 0.4380 0.8981
vn -0.9809 0.0789 0.1779
vn 0.3812 0.3674 0.8483
vn 0.7515 0.3357 0.5680
vn 0.6055 0.4480 0.6578
vn 0.9896 0.1190 0.0802
vn 0.8878 0.4507 0.0938
vn -0.8607 0.0204 0.5087
vn -0.1733 0.0007 -0.9849
vn -0.1620 0.0666 0.9845
vn -0.8432 0.3936 0.3663
vn -0.8169 0.0366 0.5757
vn -0.5707 0.3362 0.7492
vn -0.6575 0.4487 0.6053
vn -0.3634 0.0198 0.9314
vn 0.1620 0.0666 -0.9845
vn -0.1181 0.4352 0.8925
vn -0.0802 0.1190 -0.9896
vn -0.0468 0.4347 -0.8993
vn -0.3215 0.3309 -0.8872
vn -0.7482 0.3368 -0.5717
vn -0.9813 0.1562 -0.1121
vn -0.8874 0.4515 -0.0932
vn 0.9896 0.1190 -0.0802
vn 0.8993 0.4347 -0.0468
vn 0.8880 0.3308 -0.3194
vn 0.8169 0.0366 -0.5757
vn 0.5703 0.3366 -0.7493
vn 0.6496 0.4360 -0.6228
vn 0.3634 0.0198 -0.9314
vn 0.5034 -0.7095 0.4931
vn 0.0946 0.4507 -0.8876
vn 0.1442 -0.7068 0.6925
vn 0.3499 -0.6646 0.6601
vn 0.7319 -0.6682 0.1335
vn 0.8121 -0.3922 0.4321
vn 0.8211 -0.5502 0.1516
vn -0.6994 -0.7070 0.1046
vn -0.6241 -0.6931 0.3606
vn -0.3773 -0.6829 0.6256
vn -0.3133 -0.7152 -0.6248
vn -0.4968 -0.3660 0.7869
vn -0.1123 -0.6840 0.7208
vn -0.1873 -0.4328 -0.8818
vn 0.1105 -0.7033 -0.7023
vn -0.5729 -0.6507 -0.4983
vn -0.8143 -0.3863 -0.4333
vn -0.7413 -0.6514 -0.1614
vn -0.8548 -0.4693 -0.2215
vn 0.8818 -0.4328 -0.1873
vn 0.7088 -0.6253 -0.3265
vn 0.3957 -0.6505 -0.6482
vn 0.4968 -0.3660 -0.7869
vn 0.0530 -0.0749 0.9958
vn -0.5243 0.7782 0.3457
vn -0.0227 0.9967 0.0784
vn 0.0266 0.1026 0.9944
vn 0.4251 -0.8865 0.1828
vn 0.0465 0.0427 -0.9980
vn 0.0410 -0.9954 -0.0870
vn 0.3254 -0.7981 -0.5072
vn 0.1922 -0.2261 -0.9550
vn 0.4627 0.8802 0.1061
vn -0.3190 0.4743 -0.8205
vn -0.2334 0.9663 -0.1086
vn -0.9599 -0.0874 0.2662
vn -0.3460 -0.5370 0.7693
vn -0.4458 -0.2008 0.8723
vn -0.0667 -0.0537 0.9963
vn 0.8439 0.4788 0.2418
vn 0.9724 0.1127 0.2041
vn 0.1147 0.0567 -0.9918
vn 0.8277 0.5548 -0.0842
vn 0.5489 0.0679 -0.8331
vn -0.5144 -0.8339 -0.1999
vn 0.1599 0.0494 -0.9859
vn -0.3879 -0.1696 -0.9060
vn -0.7658 -0.6134 -0.1932
vn 0.9245 -0.3297 0.1913
vn 0.5583 -0.7929 0.2441
vn 0.4162 -0.8767 0.2413
vn 0.7999 -0.6001 0.0113
vn 0.2889 -0.4923 0.8211
vn 0.6706 -0.1646 0.7233
vn -0.2027 0.5847 0.7855
vn 0.2829 0.1244 0.9510
vn -0.4826 0.3879 0.7853
vn -0.2972 0.9336 -0.2000
vn -0.9042 0.3945 0.1639
vn -0.9042 0.3945 -0.1639
vn -0.1133 0.5174 -0.8482
vn -0.5809 0.5885 -0.5624
vn -0.4834 0.3874 -0.7850
vn 0.6911 -0.1502 -0.7070
vn 0.1778 -0.2789 -0.9437
vn 0.3267 -0.5272 -0.7844
vn 0.6420 -0.4460 -0.6236
vn 0.9803 -0.0981 -0.1712
vn 0.2781 -0.9271 -0.2511
vn -0.1144 0.9415 -0.3170
vn -0.1120 0.9292 -0.3523
vn 0.0320 0.3736 0.9270
vn 0.8465 0.2619 0.4636
vn -0.3187 0.9469 0.0434
vn -0.0885 0.7349 -0.6724
vn -0.0091 0.9765 0.2152
vn 0.1055 0.7039 0.7024
vn 0.5890 0.5652 0.5777
vn 0.7925 0.5223 0.3151
vn -0.6949 -0.5540 0.4585
vn -0.5800 0.5603 0.5913
vn -0.3947 -0.5944 -0.7006
vn -0.5890 0.5652 -0.5777
vn -0.4089 0.8882 -0.2093
vn 0.7262 -0.5599 -0.3989
vn 0.5800 0.5603 -0.5913
vn 0.3032 0.8991 0.3158
vn -0.3863 0.9032 0.1870
vn 0.2031 0.9791 0.0038
vn -0.1996 0.9764 0.0823
vn -0.0566 0.8989 0.4346
vn 0.0100 0.9764 -0.2156
vn -0.3032 0.8991 -0.3158
vn 0.3782 0.9072 -0.1842
vn -0.2031 0.9791 -0.0038
vn 0.1998 0.9763 -0.0836
vn 0.0566 0.9015 -0.4291
vn -0.1394 -0.9899 -0.0253
vn -0.0000 -0.9949 -0.1011
vn -0.0254 -0.9996 0.0141
vn 0.0997 -0.9950 -0.0009
vn 0.0471 -0.9211 0.3866
s 0
f 3//1 2//1 1//1
f 8//2 3//2 7//2
f 8//3 6//3 3//3
f 10//4 8//4 7//4
f 9//5 8//5 10//5
f 17//6 12//6 16//6
f 17//7 15//7 12//7
f 2//8 17//8 16//8
f 5//9 17//9 2//9
f 23//10 22//10 25//10
f 11//11 25//11 24//11
f 14//12 25//12 11//12
f 29//13 28//13 31//13
f 19//14 31//14 30//14
f 21//15 31//15 19//15
f 1//16 33//16 32//16
f 3//17 1//17 35//17
f 36//18 35//18 59//18
f 37//19 7//19 36//19
f 39//20 7//20 37//20
f 11//21 41//21 40//21
f 12//22 11//22 43//22
f 45//23 16//23 44//23
f 33//24 16//24 45//24
f 18//25 47//25 46//25
f 49//26 46//26 73//26
f 22//27 18//27 49//27
f 50//28 49//28 73//28
f 24//29 22//29 49//29
f 51//30 24//30 50//30
f 41//31 24//31 51//31
f 26//32 39//32 52//32
f 53//33 52//33 76//33
f 28//34 26//34 53//34
f 55//35 30//35 54//35
f 47//36 30//36 55//36
f 57//37 34//37 56//37
f 36//38 59//38 61//38
f 64//39 42//39 65//39
f 34//40 69//40 56//40
f 73//41 46//41 71//41
f 50//42 73//42 74//42
f 74//43 72//43 170//43
f 42//44 51//44 65//44
f 75//45 63//45 62//45
f 76//46 52//46 63//46
f 76//47 75//47 77//47
f 48//48 78//48 71//48
f 79//49 80//49 104//49
f 84//50 81//50 79//50
f 86//51 85//51 88//51
f 80//52 90//52 104//52
f 81//53 83//53 91//53
f 92//54 93//54 94//54
f 96//55 95//55 93//55
f 97//56 96//56 92//56
f 98//57 79//57 96//57
f 99//58 42//58 101//58
f 114//59 105//59 126//59
f 116//60 114//60 115//60
f 130//61 115//61 114//61
f 117//62 116//62 118//62
f 121//63 119//63 115//63
f 106//64 132//64 126//64
f 134//65 139//65 133//65
f 137//66 135//66 134//66
f 138//67 135//67 137//67
f 140//68 143//68 139//68
f 142//69 136//69 141//69
f 134//70 142//70 140//70
f 135//71 142//71 134//71
f 144//72 147//72 143//72
f 140//73 146//73 144//73
f 141//74 136//74 145//74
f 141//75 146//75 140//75
f 137//76 133//76 147//76
f 148//77 136//77 138//77
f 144//78 148//78 137//78
f 145//79 148//79 144//79
f 145//80 136//80 148//80
f 153//81 133//81 149//81
f 164//82 143//82 160//82
f 169//83 70//83 77//83
f 169//84 77//84 75//84
f 62//85 169//85 75//85
f 171//86 170//86 72//86
f 70//87 171//87 72//87
f 169//88 173//88 171//88
f 172//89 68//89 66//89
f 171//90 173//90 68//90
f 173//91 62//91 60//91
f 58//92 173//92 60//92
f 68//93 173//93 58//93
f 14//94 11//94 12//94 13//94
f 3//95 6//95 4//95
f 9//96 6//96 8//96
f 20//97 19//97 22//97 23//97
f 12//98 15//98 13//98
f 5//99 15//99 17//99
f 19//100 20//100 21//100
f 22//101 19//101 18//101
f 27//102 10//102 28//102 29//102
f 24//103 25//103 22//103
f 14//104 23//104 25//104
f 10//105 27//105 9//105
f 28//106 10//106 26//106
f 34//107 57//107 32//107 33//107
f 30//108 31//108 28//108
f 21//109 29//109 31//109
f 57//110 59//110 35//110 32//110
f 1//111 2//111 33//111
f 42//112 64//112 40//112 41//112
f 35//113 1//113 32//113
f 36//114 7//114 35//114
f 7//115 3//115 35//115
f 38//116 39//116 37//116
f 39//117 10//117 7//117
f 64//118 67//118 43//118 40//118
f 5//119 2//119 3//119 4//119
f 45//120 69//120 34//120 33//120
f 43//121 11//121 40//121
f 44//122 43//122 67//122
f 44//123 16//123 43//123
f 16//124 12//124 43//124
f 69//125 45//125 44//125
f 55//126 78//126 48//126 47//126
f 33//127 2//127 16//127
f 46//128 47//128 48//128
f 18//129 19//129 47//129
f 49//130 18//130 46//130
f 50//131 24//131 49//131
f 42//132 41//132 51//132
f 41//133 11//133 24//133
f 52//134 39//134 38//134
f 26//135 10//135 39//135
f 53//136 26//136 52//136
f 54//137 53//137 76//137
f 54//138 30//138 53//138
f 30//139 28//139 53//139
f 78//140 55//140 54//140
f 58//141 60//141 61//141 59//141
f 47//142 19//142 30//142
f 58//143 57//143 56//143
f 58//144 59//144 57//144
f 60//145 62//145 63//145 61//145
f 37//146 36//146 61//146
f 61//147 63//147 38//147 37//147
f 65//148 170//148 172//148 64//148
f 64//149 172//149 66//149 67//149
f 66//150 68//150 69//150 67//150
f 71//151 70//151 72//151 73//151
f 69//152 44//152 67//152
f 56//153 69//153 68//153
f 71//154 46//154 48//154
f 77//155 70//155 71//155 78//155
f 72//156 74//156 73//156
f 51//157 50//157 74//157
f 65//158 74//158 170//158
f 65//159 51//159 74//159
f 63//160 52//160 38//160
f 75//161 76//161 63//161
f 78//162 76//162 77//162
f 78//163 54//163 76//163
f 81//164 85//164 86//164 82//164
f 79//165 81//165 80//165
f 82//166 83//166 81//166
f 84//167 85//167 81//167
f 85//168 84//168 87//168 88//168
f 89//169 88//169 91//169 83//169
f 88//170 89//170 86//170
f 90//171 88//171 87//171
f 91//172 88//172 90//172
f 96//173 97//173 42//173 99//173
f 80//174 91//174 90//174
f 81//175 91//175 80//175
f 95//176 79//176 104//176
f 92//177 96//177 93//177
f 96//178 79//178 95//178
f 98//179 84//179 79//179
f 98//180 96//180 99//180 100//180
f 84//181 98//181 100//181 87//181
f 101//182 102//182 103//182 99//182
f 90//183 100//183 99//183
f 90//184 87//184 100//184
f 102//185 94//185 93//185 103//185
f 103//186 90//186 99//186
f 104//187 90//187 103//187
f 103//188 93//188 95//188 104//188
f 108//189 106//189 105//189 107//189
f 126//190 105//190 106//190
f 109//191 107//191 110//191 111//191
f 107//192 109//192 108//192
f 107//193 112//193 113//193 110//193
f 105//194 112//194 107//194
f 112//195 116//195 117//195 113//195
f 114//196 112//196 105//196
f 116//197 112//197 114//197
f 117//198 118//198 119//198 120//198
f 118//199 116//199 115//199
f 115//200 119//200 118//200
f 120//201 119//201 122//201 123//201
f 121//202 115//202 130//202
f 121//203 122//203 119//203
f 121//204 106//204 108//204 122//204
f 106//205 121//205 132//205
f 123//206 122//206 109//206 124//206
f 108//207 109//207 122//207
f 114//208 127//208 128//208 130//208
f 109//209 111//209 124//209
f 127//210 126//210 125//210
f 127//211 114//211 126//211
f 130//212 129//212 131//212 132//212
f 129//213 130//213 128//213
f 132//214 131//214 125//214 126//214
f 132//215 121//215 130//215
f 158//216 149//216 133//216 139//216
f 136//217 142//217 135//217
f 133//218 137//218 134//218
f 135//219 138//219 136//219
f 140//220 142//220 141//220
f 139//221 134//221 140//221
f 144//222 146//222 145//222
f 143//223 140//223 144//223
f 146//224 141//224 145//224
f 137//225 148//225 138//225
f 147//226 144//226 137//226
f 151//227 152//227 153//227 149//227
f 155//228 157//228 158//228 156//228
f 154//229 133//229 153//229
f 156//230 158//230 139//230 143//230
f 158//231 159//231 150//231 149//231
f 167//232 160//232 143//232 147//232
f 162//233 163//233 164//233 160//233
f 165//234 166//234 167//234 154//234
f 156//235 143//235 164//235
f 154//236 167//236 147//236 133//236
f 167//237 168//237 161//237 160//237
f 171//238 172//238 170//238
f 70//239 169//239 171//239
f 172//240 171//240 68//240
f 173//241 169//241 62//241
f 56//242 68//242 58//242
